# AST/ASF file generated using VICON BodyLanguage
# -----------------------------------------------
:version 1.10
:name VICON
:units
  mass 1.0
  length 0.45
  angle deg
:documentation
   .ast/.asf automatically generated from VICON data using
   VICON BodyBuilder and BodyLanguage model FoxedUp or BRILLIANT.MOD
:root
   order TX TY TZ RX RY RZ
   axis XYZ
   position 0 0 0  
   orientation 0 0 0 
:bonedata
  begin
     id 1 
     name lhipjoint
     direction 0.70531 -0.63749 0.310071 
     length 2.59589 
     axis 0 0 0  XYZ
  end
  begin
     id 2 
     name lfemur
     direction 0.34202 -0.939693 0  
     length 6.19797  
     axis 0 0 20  XYZ
    dof rx ry rz
    limits (-160.0 20.0)
           (-70.0 70.0)
           (-60.0 70.0)
  end
  begin
     id 3 
     name ltibia
     direction 0.34202 -0.939693 0   
     length 7.80054   
     axis 0 0 20   XYZ
    dof rx
    limits (-10.0 170.0)
  end
  begin
     id 4 
     name lfoot
     direction 0.0828572 -0.227648 0.970212   
     length 1.88124   
     axis -90 7.62852e-016 20   XYZ
    dof rx rz
    limits (-45.0 90.0)
           (-70.0 20.0)
  end
  begin
     id 5 
     name ltoes
     direction 1.53544e-011 -4.219e-011 1   
     length 0.948015   
     axis -90 7.62852e-016 20   XYZ
    dof rx
    limits (-90.0 20.0)
  end
  begin
     id 6 
     name rhipjoint
     direction -0.730062 -0.614543 0.29891   
     length 2.69282  
     axis 0 0 0  XYZ 
  end
  begin
     id 7 
     name rfemur
     direction -0.34202 -0.939693 0   
     length 5.86298   
     axis 0 0 -20   XYZ
    dof rx ry rz
    limits (-160.0 20.0)
           (-70.0 70.0)
           (-70.0 60.0)
  end
  begin
     id 8 
     name rtibia
     direction -0.34202 -0.939693 0   
     length 7.72374   
     axis 0 0 -20   XYZ
    dof rx
    limits (-10.0 170.0)
 end
 begin
     id 9 
     name rfoot
     direction -0.0967421 -0.265797 0.959163   
     length 2.02368  
     axis -90 -7.62852e-016 -20   XYZ
    dof rx rz
    limits (-45.0 90.0)
           (-20.0 70.0)
  end
  begin
     id 10 
     name rtoes
     direction -1.53524e-011 -4.21768e-011 1   
     length 1.01373   
     axis -90 -7.62852e-016 -20   XYZ
    dof rx
    limits (-90.0 20.0)
  end
  begin
     id 11 
     name lowerback
     direction 0.00561702 0.992801 -0.119643   
     length 2.02816   
     axis 0 0 0   XYZ
    dof rx ry rz
    limits (-20.0 45.0)
           (-30.0 30.0)
           (-30.0 30.0)
  end
  begin
     id 12 
     name upperback
     direction 0.00155544 0.995735 -0.0922509   
     length 2.02265   
     axis 0 0 0   XYZ
    dof rx ry rz
    limits (-20.0 45.0)
           (-30.0 30.0)
           (-30.0 30.0)
  end
  begin
     id 13 
     name thorax
     direction -0.000937535 0.999317 -0.0369292   
     length 2.04823   
     axis 0 0 0   XYZ
    dof rx ry rz
    limits (-20.0 45.0)
           (-30.0 30.0)
           (-30.0 30.0)
  end
  begin
     id 14 
     name lowerneck
     direction -0.0813151 0.981659 0.172436   
     length 1.8875   
     axis 0 0 0   XYZ
    dof rx ry rz
    limits (-20.0 45.0)
           (-30.0 30.0)
           (-30.0 30.0)
  end
  begin
     id 15 
     name upperneck
     direction 0.119359 0.955672 -0.269157   
     length 1.92801   
     axis 0 0 0   XYZ
    dof rx ry rz
    limits (-20.0 45.0)
           (-30.0 30.0)
           (-30.0 30.0)
  end
  begin
     id 16
     name head
     direction 0.0421007 0.992672 -0.113268  
     length 1.95809  
     axis 0 0 0   XYZ
    dof rx ry rz
    limits (-20.0 45.0)
           (-30.0 30.0)
           (-30.0 30.0)
  end
  begin
     id 17 
     name lclavicle
     direction 0.944093 0.32865 -0.0260136  
     length 3.84992  
     axis 0 0 0   XYZ
    dof ry rz
    limits (-20.0 10.0)
           (0.0 20.0)
  end
  begin
     id 18 
     name lhumerus
     direction 1 -4.48979e-011 -1.27712e-029   
     length 5.53593   
     axis 180 -30 -90   XYZ
    dof rx ry rz
    limits (-60.0 90.0)
           (-90.0 90.0)
           (-90.0 90.0)
  end
  begin
     id 19
     name lradius
     direction 1 -4.48966e-011 1.00051e-028   
     length 3.13345   
     axis 180 -30 -90   XYZ
    dof rx
    limits (-10.0 170.0)
  end
  begin
     id 20
     name lwrist
     direction 1 -4.4896e-011 2.56952e-028   
     length 1.56673   
     axis -5.12785e-016 90 90   XYZ
    dof ry
    limits (-180.0 0.0)
 end
  begin
     id 21 
     name lhand
     direction 1 -4.48934e-011 5.13905e-028   
     length 0.713374   
     axis -3.27915e-016 90 90   XYZ
    dof rx rz
    limits (-90.0 90.0)
           (-45.0 45.0)
  end
  begin
     id 22 
     name lfingers
     direction 1 -4.48973e-011 1.02781e-027   
     length 0.575141   
     axis -6.5583e-016 90 90   XYZ
    dof rx
    limits (0.0 90.0)
  end
  begin
     id 23
     name lthumb
     direction 0.707107 -6.34883e-011 0.707107   
     length 0.82579   
     axis -90 45 2.85299e-015   XYZ
    dof rx rz
    limits (-45.0 45.0)
           (-45.0 45.0)
  end
  begin
     id 24 
     name rclavicle
     direction -0.936895 0.34884 0.0232243   
     length 3.53304  
     axis 0 0 0   XYZ 
    dof ry rz
    limits (-10.0 20.0)
           (-20.0 0.0)
  end
  begin
     id 25 
     name rhumerus
     direction -1 -4.48965e-011 1.05514e-027  
     length 5.4685   
     axis 180 30 90   XYZ
    dof rx ry rz
    limits (-90.0 60.0)
           (-90.0 90.0)
           (-90.0 90.0)
  end
  begin
     id 26 
     name rradius
     direction -1 -4.48964e-011 -1.1079e-027   
     length 3.22411   
     axis 180 30 90   XYZ
    dof rx
    limits (-10.0 170.0)
  end
  begin
     id 27 
     name rwrist
     direction -1 -4.48973e-011 2.56952e-028   
     length 1.61206   
     axis -5.12785e-016 -90 -90   XYZ
    dof ry
    limits (-180.0 0.0)
  end
  begin
     id 28
     name rhand
     direction -1 -4.48957e-011 5.13905e-028   
     length 0.74528   
     axis -3.27915e-016 -90 -90   XYZ
    dof rx rz
    limits (-90.0 90.0)
           (-45.0 45.0)
  end
  begin
     id 29
     name rfingers
     direction -1 -4.4901e-011 1.02781e-027   
     length 0.600864   
     axis -6.5583e-016 -90 -90   XYZ
    dof rx
    limits (0.0 90.0)
  end
  begin
     id 30
     name rthumb
     direction -0.707107 -6.34972e-011 0.707107   
     length 0.862724   
     axis -90 -45 -2.85299e-015   XYZ
    dof rx rz
    limits (-45.0 45.0)
           (-45.0 45.0)
  end
:hierarchy
  begin
    root lhipjoint rhipjoint lowerback
    lhipjoint lfemur
    lfemur ltibia
    ltibia lfoot
    lfoot ltoes
    rhipjoint rfemur
    rfemur rtibia
    rtibia rfoot
    rfoot rtoes
    lowerback upperback
    upperback thorax
    thorax lowerneck lclavicle rclavicle
    lowerneck upperneck
    upperneck head
    lclavicle lhumerus
    lhumerus lradius
    lradius lwrist
    lwrist lhand lthumb
    lhand lfingers
    rclavicle rhumerus
    rhumerus rradius
    rradius rwrist
    rwrist rhand rthumb
    rhand rfingers
  end

#!OML:ASF G:\Work\Work\Patient Classification 1\Liu\Session 1\Liu.ASF
:FULLY-SPECIFIED
:DEGREES
119
root 23.4605 16.3012 5.00277 -170.076 15.5874 -173.931
lowerback 3.48585 2.96519 6.05393
upperback -0.237122 4.32349 1.64699
thorax -1.88308 2.13748 -1.89221
lowerneck -25.8771 -0.49795 -7.07621
upperneck 24.8303 1.41331 3.64098
head 12.4591 0.572034 2.85684
rclavicle 9.39258e-015 -3.18055e-014
rhumerus -47.1193 36.8586 -95.7454
rradius 103.863
rwrist -3.85088
rhand -23.1835 34.2267
rfingers 7.12502
rthumb 3.26592 4.27197
lclavicle 9.39258e-015 -3.18055e-014
lhumerus -66.7381 -24.6899 101.577
lradius 97.4952
lwrist 14.1553
lhand -23.3297 47.9088
lfingers 7.12502
lthumb 3.12469 77.8657
rfemur 16.8525 1.36392 25.4223
rtibia 9.99158
rfoot 12.0015 -0.958458
rtoes -12.5313
lfemur -48.1241 4.1639 -22.4499
ltibia 64.931
lfoot -19.7044 1.0555
ltoes 2.96031
120
root 23.5229 16.4139 4.53138 -170.119 15.8019 -173.518
lowerback 3.16032 3.23786 6.29569
upperback -0.337137 4.6814 1.70087
thorax -1.76312 2.31759 -1.96461
lowerneck -26.2514 -0.95108 -6.76479
upperneck 26.0346 0.869807 3.27212
head 13.0617 0.31232 2.60872
rclavicle -1.67476e-014 -1.53064e-014
rhumerus -46.9727 37.0965 -95.602
rradius 103.765
rwrist -3.37004
rhand -23.5135 35.5328
rfingers 7.12502
rthumb 2.94716 5.57346
lclavicle -1.67476e-014 -1.53064e-014
lhumerus -68.1164 -24.1564 101.571
lradius 97.6014
lwrist 14.2399
lhand -24.1919 47.7945
lfingers 7.12502
lthumb 2.29205 77.7619
rfemur 20.798 1.27148 25.4689
rtibia 4.85082
rfoot 17.0334 -2.4534
rtoes -16.2743
lfemur -47.375 3.95129 -21.6902
ltibia 59.9271
lfoot -20.091 0.632316
ltoes 1.30014
121
root 23.5862 16.5244 4.04622 -170.05 15.766 -172.913
lowerback 2.47519 3.43436 6.8017
upperback -0.304972 4.91432 1.8145
thorax -1.29707 2.44982 -2.08213
lowerneck -26.7121 -1.22425 -6.91229
upperneck 26.9031 0.676618 3.16164
head 13.5289 0.197533 2.58656
rclavicle 2.65874e-015 4.03533e-014
rhumerus -46.6455 37.421 -95.4086
rradius 103.573
rwrist -3.20115
rhand -23.8756 35.8516
rfingers 7.12502
rthumb 2.5975 5.88771
lclavicle 2.65874e-015 4.03533e-014
lhumerus -69.21 -23.7962 101.553
lradius 97.7918
lwrist 14.4479
lhand -25.7884 47.3512
lfingers 7.12502
lthumb 0.75014 77.3297
rfemur 24.5286 0.996612 25.7045
rtibia 3.81667e-014
rfoot 21.7312 -3.32744
rtoes -17.8624
lfemur -46.5895 3.63349 -20.7111
ltibia 54.9062
lfoot -20.5621 0.564139
ltoes -1.8537
122
root 23.6419 16.6012 3.56568 -170.146 15.0538 -172.56
lowerback 1.84631 3.30999 7.29126
upperback -0.296116 4.71206 1.85788
thorax -0.918387 2.36161 -2.25847
lowerneck -26.8793 -1.28708 -6.71949
upperneck 27.5645 0.641149 2.96779
head 13.8478 0.179372 2.49366
rclavicle 6.08033e-014 2.42517e-014
rhumerus -46.9204 37.7778 -95.7359
rradius 103.675
rwrist -3.1205
rhand -24.1441 35.6336
rfingers 7.12502
rthumb 2.33814 5.66667
lclavicle 6.08033e-014 2.42517e-014
lhumerus -70.0935 -23.3031 101.227
lradius 97.842
lwrist 14.7579
lhand -26.3628 47.118
lfingers 7.12502
lthumb 0.195386 77.0976
rfemur 25.6427 0.0154273 25.7794
rtibia -2.54444e-014
rfoot 24.3029 -3.49081
rtoes -18.0843
lfemur -45.6749 2.62847 -19.965
ltibia 49.9312
lfoot -21.0517 0.556932
ltoes -4.38357
123
root 23.7268 16.7012 3.11293 -168.365 16.8397 -171.12
lowerback 0.312526 4.06903 7.6368
upperback -0.876554 5.65173 2.1738
thorax -0.576537 2.84231 -2.03108
lowerneck -25.9773 -1.36359 -5.97635
upperneck 27.7294 0.416127 2.34552
head 13.7524 0.0915628 2.07722
rclavicle -3.44146e-014 5.1684e-015
rhumerus -47.7401 38.1197 -96.3479
rradius 103.93
rwrist -3.03999
rhand -24.4103 35.991
rfingers 7.12502
rthumb 2.08108 6.0214
lclavicle -3.44146e-014 5.1684e-015
lhumerus -70.9916 -22.5845 100.762
lradius 97.9091
lwrist 15.6099
lhand -25.8302 48.2484
lfingers 7.12502
lthumb 0.709705 78.2269
rfemur 24.7404 1.72483 26.7247
rtibia 1.90833e-014
rfoot 27.6124 -3.68421
rtoes -19.1451
lfemur -46.0494 3.91047 -18.2811
ltibia 45.1717
lfoot -21.9394 0.602455
ltoes -5.27398
124
root 23.778 16.7332 2.65001 -168.889 15.551 -170.872
lowerback 0.077446 3.63042 8.16233
upperback -0.967095 5.07383 2.33476
thorax -0.563582 2.55756 -2.14691
lowerneck -25.8278 -1.19231 -6.59107
upperneck 28.369 0.901887 2.66605
head 13.9671 0.298135 2.42338
rclavicle -6.35117e-014 1.09332e-014
rhumerus -48.2779 38.443 -96.7627
rradius 103.827
rwrist -2.86053
rhand -24.7561 36.6392
rfingers 7.12502
rthumb 1.7471 6.6666
lclavicle -6.35117e-014 1.09332e-014
lhumerus -71.977 -21.8582 100.439
lradius 98.2159
lwrist 16.3449
lhand -24.8872 50.3798
lfingers 7.12502
lthumb 1.62047 80.3533
rfemur 26.6349 0.0992405 26.9233
rtibia -1.90833e-014
rfoot 29.16 -5.17112
rtoes -16.625
lfemur -44.6391 2.01663 -17.3266
ltibia 40.6896
lfoot -22.5869 0.84267
ltoes -4.6586
125
root 23.838 16.7714 2.1951 -169.033 15.0137 -170.647
lowerback -0.416467 3.5158 8.42654
upperback -0.983357 4.87759 2.37139
thorax -0.305349 2.47055 -2.22145
lowerneck -26.222 -1.03116 -7.14442
upperneck 29.0283 1.27627 3.24026
head 14.3038 0.485524 2.85164
rclavicle 4.27014e-014 1.70955e-014
rhumerus -48.1199 38.6187 -96.8632
rradius 103.543
rwrist -2.53761
rhand -25.0036 36.7996
rfingers 7.12502
rthumb 1.50812 6.82519
lclavicle 4.27014e-014 1.70955e-014
lhumerus -72.7017 -21.3908 100.04
lradius 98.6705
lwrist 16.5076
lhand -24.1687 51.2547
lfingers 7.12502
lthumb 2.31445 81.2219
rfemur 28.2654 -0.74644 26.9381
rtibia -1.59028e-014
rfoot 29.3963 -7.99857
rtoes -12.0104
lfemur -43.6279 0.807668 -16.4924
ltibia 36.613
lfoot -23.2533 1.67586
ltoes -4.02555
126
root 23.9009 16.8111 1.73478 -168.998 14.8056 -170.475
lowerback -1.15082 3.50302 8.56638
upperback -0.940149 4.77238 2.29394
thorax 0.15837 2.43434 -2.32535
lowerneck -25.0947 -1.36009 -6.1065
upperneck 28.1851 0.50956 2.38446
head 13.7616 0.153309 2.14485
rclavicle -5.52124e-014 1.61016e-014
rhumerus -48.0936 38.5751 -96.998
rradius 103.658
rwrist -2.42315
rhand -25.0083 36.5989
rfingers 7.12502
rthumb 1.50358 6.6245
lclavicle -5.52124e-014 1.61016e-014
lhumerus -73.1561 -21.1477 99.39
lradius 99.131
lwrist 16.7158
lhand -24.1485 50.5593
lfingers 7.12502
lthumb 2.33393 80.5263
rfemur 29.5437 -1.27778 26.899
rtibia 4.13472e-014
rfoot 28.9854 -9.48497
rtoes -11.1651
lfemur -42.77 0.102683 -15.8745
ltibia 33.0347
lfoot -23.9677 2.58505
ltoes -2.44236
127
root 23.9661 16.8452 1.27703 -169.164 14.7834 -170.531
lowerback -1.60416 3.45068 8.29149
upperback -0.993 4.65278 2.2301
thorax 0.330408 2.37768 -2.21578
lowerneck -25.2278 -1.27983 -6.13833
upperneck 28.5587 0.601076 2.63307
head 13.9418 0.230481 2.28073
rclavicle -2.32516e-014 2.14687e-014
rhumerus -48.4946 38.5465 -97.2702
rradius 103.871
rwrist -2.78159
rhand -24.8069 36.8611
rfingers 7.12502
rthumb 1.6981 6.88812
lclavicle -2.32516e-014 2.14687e-014
lhumerus -73.7151 -20.8297 98.8139
lradius 99.489
lwrist 17.1079
lhand -24.5497 49.0252
lfingers 7.12502
lthumb 1.94648 78.9961
rfemur 30.8317 -1.70064 26.6427
rtibia 6.36111e-015
rfoot 28.6445 -9.97305
rtoes -13.1697
lfemur -41.7747 -0.424023 -15.5945
ltibia 30.0392
lfoot -24.6709 3.6908
ltoes -1.85547
128
root 24.0312 16.8625 0.830213 -169.448 14.9051 -170.555
lowerback -1.82606 3.44978 7.97685
upperback -1.0136 4.62777 2.19652
thorax 0.410524 2.36567 -2.06497
lowerneck -25.2632 -1.38307 -5.81694
upperneck 28.7291 0.410118 2.40452
head 14.0346 0.152471 2.10346
rclavicle 2.82725e-014 4.9485e-014
rhumerus -48.8148 38.4607 -97.5178
rradius 103.903
rwrist -2.98382
rhand -24.6831 37.3259
rfingers 7.12502
rthumb 1.81758 7.35391
lclavicle 2.82725e-014 4.9485e-014
lhumerus -74.1835 -20.6226 98.4153
lradius 99.6956
lwrist 17.5613
lhand -25.101 47.1388
lfingers 7.12502
lthumb 1.41398 77.1139
rfemur 32.1921 -1.99122 26.3879
rtibia -6.36111e-015
rfoot 28.4007 -10.3926
rtoes -14.987
lfemur -40.7592 -0.528454 -15.4901
ltibia 27.5738
lfoot -24.758 5.07776
ltoes -6.07292
129
root 24.093 16.8601 0.387878 -169.765 14.7914 -170.469
lowerback -2.05768 3.4221 7.89364
upperback -0.966419 4.56194 2.17823
thorax 0.578517 2.33823 -2.0231
lowerneck -25.234 -1.40461 -5.4926
upperneck 28.8111 0.334148 2.15904
head 14.0688 0.122738 1.93724
rclavicle -3.41816e-015 4.23908e-014
rhumerus -49.1056 38.2093 -97.783
rradius 103.895
rwrist -2.97732
rhand -24.648 37.5557
rfingers 7.12502
rthumb 1.85156 7.58401
lclavicle -3.41816e-015 4.23908e-014
lhumerus -74.5597 -20.5899 98.0938
lradius 100.008
lwrist 17.8568
lhand -25.3755 45.4786
lfingers 7.12502
lthumb 1.1489 75.4553
rfemur 32.0189 -2.52217 26.2735
rtibia 2.64466
rfoot 27.4048 -10.7315
rtoes -16.1051
lfemur -39.7901 -0.197443 -15.6072
ltibia 25.6039
lfoot -23.8825 5.9958
ltoes -11.2698
130
root 24.1548 16.8495 -0.050588 -170.354 14.5843 -170.58
lowerback -2.04133 3.35512 7.63677
upperback -0.868567 4.46287 2.1245
thorax 0.647803 2.2891 -1.93903
lowerneck -24.6087 -1.30333 -5.64271
upperneck 28.4783 0.36314 2.5636
head 13.7907 0.185162 2.11958
rclavicle -2.60346e-014 -2.81777e-014
rhumerus -49.3607 37.7834 -97.9645
rradius 103.776
rwrist -3.19674
rhand -24.6144 38.0313
rfingers 7.12502
rthumb 1.88402 8.05987
lclavicle -2.60346e-014 -2.81777e-014
lhumerus -74.8878 -20.7111 97.8134
lradius 100.449
lwrist 18.4517
lhand -25.1586 45.1539
lfingers 7.12502
lthumb 1.35841 75.1293
rfemur 28.2399 -3.26246 25.9486
rtibia 11.7942
rfoot 24.0817 -10.0939
rtoes -19.2656
lfemur -38.5744 0.0819236 -16.0011
ltibia 24.1209
lfoot -22.8735 5.99347
ltoes -11.2352
131
root 24.2144 16.8221 -0.483502 -171.138 14.5075 -170.711
lowerback -1.83265 3.30896 7.44583
upperback -0.658855 4.39585 1.99394
thorax 0.739596 2.25582 -1.9762
lowerneck -24.0252 -1.19381 -5.78217
upperneck 28.0314 0.342051 3.10335
head 13.4772 0.241686 2.33792
rclavicle -3.70361e-014 -3.49861e-014
rhumerus -49.4109 37.3162 -98.0753
rradius 103.551
rwrist -3.43862
rhand -24.6274 38.3875
rfingers 7.12502
rthumb 1.8714 8.41595
lclavicle -3.70361e-014 -3.49861e-014
lhumerus -74.9096 -20.9746 97.2757
lradius 100.747
lwrist 18.8561
lhand -24.1257 46.8388
lfingers 7.12502
lthumb 2.35594 76.8055
rfemur 26.5781 -4.16952 25.3568
rtibia 17.5415
rfoot 21.999 -9.39619
rtoes -22.0546
lfemur -37.1064 0.0257861 -16.2546
ltibia 23.0383
lfoot -22.2533 5.80308
ltoes -9.92511
132
root 24.2733 16.7793 -0.911257 -171.868 14.5367 -170.717
lowerback -1.62526 3.22212 7.33426
upperback -0.441044 4.27826 1.92346
thorax 0.836485 2.20003 -1.99662
lowerneck -24.0471 -1.02934 -5.42502
upperneck 28.104 0.478102 3.00178
head 13.5043 0.327261 2.26449
rclavicle 5.16343e-014 8.74653e-015
rhumerus -49.6183 37.0918 -98.2506
rradius 103.468
rwrist -3.71439
rhand -24.7752 38.3447
rfingers 7.12502
rthumb 1.72869 8.37195
lclavicle 5.16343e-014 8.74653e-015
lhumerus -74.7246 -21.0138 96.6031
lradius 100.832
lwrist 18.3354
lhand -22.9364 48.0824
lfingers 7.12502
lthumb 3.50454 78.0333
rfemur 25.1612 -4.83663 24.9177
rtibia 22.7608
rfoot 19.7015 -9.32738
rtoes -20.9475
lfemur -35.6035 -0.269137 -16.2587
ltibia 22.254
lfoot -21.7538 6.11775
ltoes -12.7946
